<mxfile host="app.diagrams.net" modified="2023-05-04T13:28:36.785Z" agent="5.0 (X11; Ubuntu)" etag="y3LMNbZytr7M5OkHM6p_" version="20.8.23" type="github">
  <diagram name="Seite-1" id="9ViWIDT8gAgbKJ_sBpU3">
    <mxGraphModel dx="574" dy="329" grid="1" gridSize="10" guides="1" tooltips="1" connect="1" arrows="1" fold="1" page="1" pageScale="1" pageWidth="500" pageHeight="120" math="0" shadow="0">
      <root>
        <mxCell id="0" />
        <mxCell id="1" parent="0" />
        <mxCell id="pHyKpYrZ_51T67C-TIFT-4" style="edgeStyle=orthogonalEdgeStyle;rounded=0;orthogonalLoop=1;jettySize=auto;html=1;endArrow=none;endFill=0;" edge="1" parent="1" source="pHyKpYrZ_51T67C-TIFT-2">
          <mxGeometry relative="1" as="geometry">
            <mxPoint x="95" y="500" as="targetPoint" />
          </mxGeometry>
        </mxCell>
        <mxCell id="pHyKpYrZ_51T67C-TIFT-2" value="" style="image;html=1;image=img/lib/clip_art/computers/iPad_128x128.png" vertex="1" parent="1">
          <mxGeometry x="80" y="20" width="30" height="40" as="geometry" />
        </mxCell>
        <mxCell id="pHyKpYrZ_51T67C-TIFT-7" style="edgeStyle=orthogonalEdgeStyle;rounded=0;orthogonalLoop=1;jettySize=auto;html=1;endArrow=none;endFill=0;" edge="1" parent="1" source="pHyKpYrZ_51T67C-TIFT-5">
          <mxGeometry relative="1" as="geometry">
            <mxPoint x="345" y="500" as="targetPoint" />
          </mxGeometry>
        </mxCell>
        <mxCell id="pHyKpYrZ_51T67C-TIFT-5" value="" style="image;html=1;image=img/lib/clip_art/networking/Wireless_Router_128x128.png" vertex="1" parent="1">
          <mxGeometry x="330" y="20" width="30" height="40" as="geometry" />
        </mxCell>
        <mxCell id="pHyKpYrZ_51T67C-TIFT-8" value="" style="endArrow=classic;html=1;rounded=0;" edge="1" parent="1">
          <mxGeometry width="50" height="50" relative="1" as="geometry">
            <mxPoint x="100" y="80" as="sourcePoint" />
            <mxPoint x="340" y="90" as="targetPoint" />
          </mxGeometry>
        </mxCell>
        <mxCell id="pHyKpYrZ_51T67C-TIFT-9" value="" style="endArrow=classic;html=1;rounded=0;" edge="1" parent="1">
          <mxGeometry width="50" height="50" relative="1" as="geometry">
            <mxPoint x="340" y="100" as="sourcePoint" />
            <mxPoint x="100" y="110" as="targetPoint" />
          </mxGeometry>
        </mxCell>
        <mxCell id="pHyKpYrZ_51T67C-TIFT-10" value="" style="endArrow=classic;html=1;rounded=0;" edge="1" parent="1">
          <mxGeometry width="50" height="50" relative="1" as="geometry">
            <mxPoint x="340" y="140" as="sourcePoint" />
            <mxPoint x="100" y="150" as="targetPoint" />
          </mxGeometry>
        </mxCell>
        <mxCell id="pHyKpYrZ_51T67C-TIFT-11" value="" style="endArrow=classic;html=1;rounded=0;" edge="1" parent="1">
          <mxGeometry width="50" height="50" relative="1" as="geometry">
            <mxPoint x="100" y="170" as="sourcePoint" />
            <mxPoint x="340" y="180" as="targetPoint" />
          </mxGeometry>
        </mxCell>
        <mxCell id="pHyKpYrZ_51T67C-TIFT-12" value="" style="endArrow=classic;html=1;rounded=0;" edge="1" parent="1">
          <mxGeometry width="50" height="50" relative="1" as="geometry">
            <mxPoint x="340" y="200" as="sourcePoint" />
            <mxPoint x="100" y="210" as="targetPoint" />
          </mxGeometry>
        </mxCell>
        <mxCell id="pHyKpYrZ_51T67C-TIFT-13" value="" style="endArrow=classic;html=1;rounded=0;" edge="1" parent="1">
          <mxGeometry width="50" height="50" relative="1" as="geometry">
            <mxPoint x="100" y="230" as="sourcePoint" />
            <mxPoint x="340" y="240" as="targetPoint" />
          </mxGeometry>
        </mxCell>
        <mxCell id="pHyKpYrZ_51T67C-TIFT-14" value="" style="endArrow=classic;html=1;rounded=0;" edge="1" parent="1">
          <mxGeometry width="50" height="50" relative="1" as="geometry">
            <mxPoint x="340" y="278" as="sourcePoint" />
            <mxPoint x="100" y="288" as="targetPoint" />
          </mxGeometry>
        </mxCell>
        <mxCell id="pHyKpYrZ_51T67C-TIFT-15" value="" style="endArrow=classic;html=1;rounded=0;" edge="1" parent="1">
          <mxGeometry width="50" height="50" relative="1" as="geometry">
            <mxPoint x="100" y="308" as="sourcePoint" />
            <mxPoint x="340" y="318" as="targetPoint" />
          </mxGeometry>
        </mxCell>
        <mxCell id="pHyKpYrZ_51T67C-TIFT-16" value="Ack" style="text;html=1;strokeColor=none;fillColor=none;align=center;verticalAlign=middle;whiteSpace=wrap;rounded=0;" vertex="1" parent="1">
          <mxGeometry x="190" y="100" width="60" height="30" as="geometry" />
        </mxCell>
        <mxCell id="pHyKpYrZ_51T67C-TIFT-17" value="Ack" style="text;html=1;strokeColor=none;fillColor=none;align=center;verticalAlign=middle;whiteSpace=wrap;rounded=0;" vertex="1" parent="1">
          <mxGeometry x="190" y="170" width="60" height="30" as="geometry" />
        </mxCell>
        <mxCell id="pHyKpYrZ_51T67C-TIFT-18" value="Ack" style="text;html=1;strokeColor=none;fillColor=none;align=center;verticalAlign=middle;whiteSpace=wrap;rounded=0;" vertex="1" parent="1">
          <mxGeometry x="190" y="230" width="60" height="30" as="geometry" />
        </mxCell>
        <mxCell id="pHyKpYrZ_51T67C-TIFT-19" value="Ack" style="text;html=1;strokeColor=none;fillColor=none;align=center;verticalAlign=middle;whiteSpace=wrap;rounded=0;" vertex="1" parent="1">
          <mxGeometry x="190" y="310" width="60" height="30" as="geometry" />
        </mxCell>
        <mxCell id="pHyKpYrZ_51T67C-TIFT-20" value="" style="endArrow=none;html=1;rounded=0;" edge="1" parent="1">
          <mxGeometry width="50" height="50" relative="1" as="geometry">
            <mxPoint x="340" y="180" as="sourcePoint" />
            <mxPoint x="350" y="180" as="targetPoint" />
          </mxGeometry>
        </mxCell>
        <mxCell id="pHyKpYrZ_51T67C-TIFT-21" value="" style="endArrow=none;html=1;rounded=0;" edge="1" parent="1">
          <mxGeometry width="50" height="50" relative="1" as="geometry">
            <mxPoint x="340" y="140" as="sourcePoint" />
            <mxPoint x="350" y="140" as="targetPoint" />
          </mxGeometry>
        </mxCell>
        <mxCell id="pHyKpYrZ_51T67C-TIFT-22" value="" style="endArrow=none;html=1;rounded=0;" edge="1" parent="1">
          <mxGeometry width="50" height="50" relative="1" as="geometry">
            <mxPoint x="340" y="240" as="sourcePoint" />
            <mxPoint x="350" y="240" as="targetPoint" />
          </mxGeometry>
        </mxCell>
        <mxCell id="pHyKpYrZ_51T67C-TIFT-23" value="" style="endArrow=none;html=1;rounded=0;" edge="1" parent="1">
          <mxGeometry width="50" height="50" relative="1" as="geometry">
            <mxPoint x="340" y="200" as="sourcePoint" />
            <mxPoint x="350" y="200" as="targetPoint" />
          </mxGeometry>
        </mxCell>
        <mxCell id="pHyKpYrZ_51T67C-TIFT-24" value="" style="endArrow=none;html=1;rounded=0;" edge="1" parent="1">
          <mxGeometry width="50" height="50" relative="1" as="geometry">
            <mxPoint x="340" y="318" as="sourcePoint" />
            <mxPoint x="350" y="318" as="targetPoint" />
          </mxGeometry>
        </mxCell>
        <mxCell id="pHyKpYrZ_51T67C-TIFT-25" value="" style="endArrow=none;html=1;rounded=0;" edge="1" parent="1">
          <mxGeometry width="50" height="50" relative="1" as="geometry">
            <mxPoint x="340" y="278" as="sourcePoint" />
            <mxPoint x="350" y="278" as="targetPoint" />
          </mxGeometry>
        </mxCell>
        <mxCell id="pHyKpYrZ_51T67C-TIFT-26" value="" style="endArrow=none;html=1;rounded=0;" edge="1" parent="1">
          <mxGeometry width="50" height="50" relative="1" as="geometry">
            <mxPoint x="89" y="150" as="sourcePoint" />
            <mxPoint x="99" y="150" as="targetPoint" />
          </mxGeometry>
        </mxCell>
        <mxCell id="pHyKpYrZ_51T67C-TIFT-27" value="" style="endArrow=none;html=1;rounded=0;" edge="1" parent="1">
          <mxGeometry width="50" height="50" relative="1" as="geometry">
            <mxPoint x="89" y="170" as="sourcePoint" />
            <mxPoint x="99" y="170" as="targetPoint" />
          </mxGeometry>
        </mxCell>
        <mxCell id="pHyKpYrZ_51T67C-TIFT-28" value="" style="endArrow=none;html=1;rounded=0;" edge="1" parent="1">
          <mxGeometry width="50" height="50" relative="1" as="geometry">
            <mxPoint x="89" y="210" as="sourcePoint" />
            <mxPoint x="99" y="210" as="targetPoint" />
          </mxGeometry>
        </mxCell>
        <mxCell id="pHyKpYrZ_51T67C-TIFT-29" value="" style="endArrow=none;html=1;rounded=0;" edge="1" parent="1">
          <mxGeometry width="50" height="50" relative="1" as="geometry">
            <mxPoint x="89" y="230" as="sourcePoint" />
            <mxPoint x="99" y="230" as="targetPoint" />
          </mxGeometry>
        </mxCell>
        <mxCell id="pHyKpYrZ_51T67C-TIFT-30" value="" style="endArrow=none;html=1;rounded=0;" edge="1" parent="1">
          <mxGeometry width="50" height="50" relative="1" as="geometry">
            <mxPoint x="89" y="288" as="sourcePoint" />
            <mxPoint x="99" y="288" as="targetPoint" />
          </mxGeometry>
        </mxCell>
        <mxCell id="pHyKpYrZ_51T67C-TIFT-31" value="" style="endArrow=none;html=1;rounded=0;" edge="1" parent="1">
          <mxGeometry width="50" height="50" relative="1" as="geometry">
            <mxPoint x="89" y="308" as="sourcePoint" />
            <mxPoint x="99" y="308" as="targetPoint" />
          </mxGeometry>
        </mxCell>
        <mxCell id="pHyKpYrZ_51T67C-TIFT-32" value="&lt;div align=&quot;left&quot;&gt;t&lt;sub&gt;1,1&lt;/sub&gt;&lt;/div&gt;" style="text;html=1;strokeColor=none;fillColor=none;align=left;verticalAlign=middle;whiteSpace=wrap;rounded=0;" vertex="1" parent="1">
          <mxGeometry x="353" y="124" width="30" height="30" as="geometry" />
        </mxCell>
        <mxCell id="pHyKpYrZ_51T67C-TIFT-33" value="&lt;div align=&quot;left&quot;&gt;t&lt;sub&gt;4,1&lt;/sub&gt;&lt;/div&gt;" style="text;html=1;strokeColor=none;fillColor=none;align=left;verticalAlign=middle;whiteSpace=wrap;rounded=0;" vertex="1" parent="1">
          <mxGeometry x="353" y="166" width="30" height="30" as="geometry" />
        </mxCell>
        <mxCell id="pHyKpYrZ_51T67C-TIFT-34" value="&lt;div align=&quot;left&quot;&gt;t&lt;sub&gt;1,2&lt;/sub&gt;&lt;/div&gt;" style="text;html=1;strokeColor=none;fillColor=none;align=left;verticalAlign=middle;whiteSpace=wrap;rounded=0;" vertex="1" parent="1">
          <mxGeometry x="352" y="185" width="30" height="30" as="geometry" />
        </mxCell>
        <mxCell id="pHyKpYrZ_51T67C-TIFT-35" value="&lt;div align=&quot;left&quot;&gt;t&lt;sub&gt;4,2&lt;/sub&gt;&lt;/div&gt;" style="text;html=1;strokeColor=none;fillColor=none;align=left;verticalAlign=middle;whiteSpace=wrap;rounded=0;" vertex="1" parent="1">
          <mxGeometry x="352" y="227" width="30" height="30" as="geometry" />
        </mxCell>
        <mxCell id="pHyKpYrZ_51T67C-TIFT-36" value="&lt;div align=&quot;left&quot;&gt;t&lt;sub&gt;1,3&lt;/sub&gt;&lt;/div&gt;" style="text;html=1;strokeColor=none;fillColor=none;align=left;verticalAlign=middle;whiteSpace=wrap;rounded=0;" vertex="1" parent="1">
          <mxGeometry x="352" y="262" width="30" height="30" as="geometry" />
        </mxCell>
        <mxCell id="pHyKpYrZ_51T67C-TIFT-37" value="&lt;div align=&quot;left&quot;&gt;t&lt;sub&gt;4,3&lt;/sub&gt;&lt;/div&gt;" style="text;html=1;strokeColor=none;fillColor=none;align=left;verticalAlign=middle;whiteSpace=wrap;rounded=0;" vertex="1" parent="1">
          <mxGeometry x="352" y="304" width="30" height="30" as="geometry" />
        </mxCell>
        <mxCell id="pHyKpYrZ_51T67C-TIFT-38" value="&lt;div align=&quot;left&quot;&gt;t&lt;sub&gt;2,1&lt;/sub&gt;&lt;/div&gt;" style="text;html=1;strokeColor=none;fillColor=none;align=left;verticalAlign=middle;whiteSpace=wrap;rounded=0;" vertex="1" parent="1">
          <mxGeometry x="67" y="136" width="30" height="30" as="geometry" />
        </mxCell>
        <mxCell id="pHyKpYrZ_51T67C-TIFT-39" value="&lt;div align=&quot;left&quot;&gt;t&lt;sub&gt;3,1&lt;/sub&gt;&lt;/div&gt;" style="text;html=1;strokeColor=none;fillColor=none;align=left;verticalAlign=middle;whiteSpace=wrap;rounded=0;" vertex="1" parent="1">
          <mxGeometry x="67" y="153" width="30" height="30" as="geometry" />
        </mxCell>
        <mxCell id="pHyKpYrZ_51T67C-TIFT-40" value="&lt;div align=&quot;left&quot;&gt;t&lt;sub&gt;2,2&lt;/sub&gt;&lt;/div&gt;" style="text;html=1;strokeColor=none;fillColor=none;align=left;verticalAlign=middle;whiteSpace=wrap;rounded=0;" vertex="1" parent="1">
          <mxGeometry x="67" y="195" width="30" height="30" as="geometry" />
        </mxCell>
        <mxCell id="pHyKpYrZ_51T67C-TIFT-41" value="&lt;div align=&quot;left&quot;&gt;t&lt;sub&gt;3,2&lt;/sub&gt;&lt;/div&gt;" style="text;html=1;strokeColor=none;fillColor=none;align=left;verticalAlign=middle;whiteSpace=wrap;rounded=0;" vertex="1" parent="1">
          <mxGeometry x="67" y="212" width="30" height="30" as="geometry" />
        </mxCell>
        <mxCell id="pHyKpYrZ_51T67C-TIFT-42" value="&lt;div align=&quot;left&quot;&gt;t&lt;sub&gt;2,3&lt;/sub&gt;&lt;/div&gt;" style="text;html=1;strokeColor=none;fillColor=none;align=left;verticalAlign=middle;whiteSpace=wrap;rounded=0;" vertex="1" parent="1">
          <mxGeometry x="67" y="272" width="30" height="30" as="geometry" />
        </mxCell>
        <mxCell id="pHyKpYrZ_51T67C-TIFT-43" value="&lt;div align=&quot;left&quot;&gt;t&lt;sub&gt;3,3&lt;/sub&gt;&lt;/div&gt;" style="text;html=1;strokeColor=none;fillColor=none;align=left;verticalAlign=middle;whiteSpace=wrap;rounded=0;" vertex="1" parent="1">
          <mxGeometry x="67" y="289" width="30" height="30" as="geometry" />
        </mxCell>
        <mxCell id="pHyKpYrZ_51T67C-TIFT-44" value="FTM Trigger" style="text;html=1;strokeColor=none;fillColor=none;align=center;verticalAlign=middle;whiteSpace=wrap;rounded=0;" vertex="1" parent="1">
          <mxGeometry x="175" y="60" width="90" height="30" as="geometry" />
        </mxCell>
        <mxCell id="pHyKpYrZ_51T67C-TIFT-45" value="FTM (0,0)" style="text;html=1;strokeColor=none;fillColor=none;align=center;verticalAlign=middle;whiteSpace=wrap;rounded=0;" vertex="1" parent="1">
          <mxGeometry x="175" y="120" width="90" height="30" as="geometry" />
        </mxCell>
        <mxCell id="pHyKpYrZ_51T67C-TIFT-46" value="FTM (t&lt;sub&gt;1,1&lt;/sub&gt;, t&lt;sub&gt;4,1&lt;/sub&gt;)" style="text;html=1;strokeColor=none;fillColor=none;align=center;verticalAlign=middle;whiteSpace=wrap;rounded=0;" vertex="1" parent="1">
          <mxGeometry x="175" y="183" width="90" height="30" as="geometry" />
        </mxCell>
        <mxCell id="pHyKpYrZ_51T67C-TIFT-47" value="FTM (t&lt;sub&gt;1,2&lt;/sub&gt;, t&lt;sub&gt;4,2&lt;/sub&gt;)" style="text;html=1;strokeColor=none;fillColor=none;align=center;verticalAlign=middle;whiteSpace=wrap;rounded=0;" vertex="1" parent="1">
          <mxGeometry x="175" y="260" width="90" height="30" as="geometry" />
        </mxCell>
      </root>
    </mxGraphModel>
  </diagram>
</mxfile>
